# xmcd
#
# Track frame offsets:
#   150
#   27092
#   48691
#   71576
#   93383
#   118915
#   143787
#   172454
#   190218
#   212530
#   230702
#   246664
#   268119
#   290209
#   316621
#   336804
#
# Disc length: 4635 seconds
#
# Revision: 0
# Processed by: cddbd v1.5.1PL2 Copyright (c) Steve Scherf et al.
# Submitted via: GXTranscoder 2.0.1939
#
DISCID=05121910
DTITLE=Sting - desconocido
DYEAR=1900
DGENRE=Blues
TTITLE0=A thousand years
TTITLE1=Desert Rose
TTITLE2=After the rain has fallen
TTITLE3=tomorrow we'll see
TTITLE4=fill her up
TTITLE5=ghost history
TTITLE6=brand new day
TTITLE7=Straight to my heart
TTITLE8=all this time
TTITLE9=moon over bourbon street
TTITLE10=love is the seventh wave
TTITLE11=why should i cry for you?
TTITLE12=this cowboy song
TTITLE13=i was brought to my senses
TTITLE14=all four seasons
TTITLE15=lithium sunset
EXTD=
EXTT0=
EXTT1=
EXTT2=
EXTT3=
EXTT4=
EXTT5=
EXTT6=
EXTT7=
EXTT8=
EXTT9=
EXTT10=
EXTT11=
EXTT12=
EXTT13=
EXTT14=
EXTT15=
PLAYORDER=
